<svg width="354" height="93" viewBox="0 0 354 93" fill="none" xmlns="http://www.w3.org/2000/svg">
<path d="M53.103 26.474C53.0791 26.4441 53.0371 26.4321 52.9952 26.4381C52.9533 26.4441 48.9951 27.2705 45.4921 25.462C42.1746 23.7494 38.953 23.9889 38.42 24.0428C38.42 24.0428 38.432 24.0308 38.438 24.0249C38.8153 23.4859 40.2345 21.6775 42.5938 21.1265C45.4801 20.4559 45.8094 18.8211 45.8214 18.7492C45.8274 18.7073 45.8094 18.6594 45.7735 18.6354C45.7376 18.6115 45.6897 18.6115 45.6537 18.6354C44.7735 19.2462 42.1207 19.9349 40.1386 19.5876C38.5338 19.3061 37.2044 19.5337 36.7074 19.6355C36.8511 18.8271 37.5398 16.6773 40.8932 14.3299C45.3424 11.216 45.3543 8.09611 45.2046 7.76077C45.1867 7.72484 45.1507 7.70089 45.1148 7.6949C45.0729 7.6949 45.037 7.71286 45.013 7.7428C44.9891 7.77873 42.7974 11.1741 39.0428 12.3957C35.7433 13.4676 33.6714 15.7132 33.1624 16.312C33.0367 15.6353 32.7552 13.3897 33.9948 11.3417C35.5277 8.80871 34.5876 7.42543 34.5457 7.37154C34.5218 7.33561 34.4739 7.31764 34.4319 7.32961C34.39 7.34159 34.3541 7.37154 34.3481 7.41944C34.1684 8.47337 32.8151 10.8507 31.1803 12.0364C29.7911 13.0424 29.0246 14.1921 28.7851 14.5814C28.4138 14.1143 27.1144 12.0963 27.9168 7.70688C28.8929 2.37135 26.7132 0.13773 26.3659 0.00598844C26.3299 -0.00598806 26.288 -5.42084e-07 26.2581 0.0239525C26.2281 0.0479054 26.2162 0.0898234 26.2222 0.131741C26.2281 0.173659 27.0545 4.1319 25.2461 7.63502C23.5754 10.8627 23.767 14.0664 23.8209 14.6772C23.2341 14.258 21.5095 12.8508 20.9765 10.5573C20.3059 7.67094 18.6651 7.34159 18.5992 7.32961C18.5573 7.32363 18.5094 7.34159 18.4855 7.37752C18.4615 7.41345 18.4615 7.46135 18.4855 7.49728C19.0963 8.37756 19.7849 11.0244 19.4376 13.0125C19.1382 14.7431 19.4136 16.1264 19.5094 16.5395C18.6531 16.3898 16.5393 15.6832 14.2039 12.3657C11.0781 7.92245 7.95828 7.92245 7.62294 8.07815C7.58701 8.09611 7.56307 8.13204 7.56307 8.16797C7.56307 8.20989 7.58101 8.24582 7.61095 8.26977C7.64688 8.29373 11.0481 10.4734 12.2817 14.2281C13.3057 17.348 15.3776 19.366 16.1022 20.0008C15.3297 20.1325 13.1799 20.3541 11.1979 19.1564C8.66486 17.6234 7.28159 18.5636 7.2277 18.6055C7.19177 18.6294 7.17384 18.6773 7.18582 18.7193C7.19779 18.7612 7.22771 18.7971 7.27562 18.8031C8.32953 18.9827 10.7068 20.3361 11.8925 21.9709C12.9584 23.45 14.1979 24.2225 14.5033 24.4021C12.4494 25.977 8.49123 25.3483 7.70678 25.2045C2.35936 24.2225 0.131735 26.4082 0.00598361 26.7555C-0.0059927 26.7914 1.29987e-05 26.8333 0.0239656 26.8633C0.0479183 26.8932 0.089831 26.9052 0.131748 26.8992C0.173665 26.8932 4.13186 26.0668 7.63493 27.8813C10.0601 29.1328 12.4254 29.3424 13.7428 29.3424C14.0901 29.3424 14.3596 29.3304 14.5452 29.3125C14.1321 29.8933 12.7248 31.6359 10.4194 32.1689C7.53311 32.8396 7.20375 34.4803 7.19177 34.5462C7.18579 34.5881 7.20376 34.636 7.23969 34.66C7.27562 34.6839 7.32353 34.6839 7.35946 34.66C8.23972 34.0492 10.8865 33.3605 12.8746 33.7079C14.5153 33.9953 15.8686 33.7558 16.3357 33.648C16.198 34.4564 15.5093 36.6062 12.144 38.9595C7.69479 42.0734 7.67682 45.1933 7.83251 45.5287C7.85048 45.5646 7.88642 45.5885 7.92235 45.5945C7.95828 45.5945 8.00018 45.5766 8.02414 45.5466C8.04809 45.5107 10.2398 42.1154 13.9943 40.8937C17.228 39.8458 19.2699 37.6781 19.8507 37.0074C19.9825 37.732 20.234 39.9356 19.0124 41.9477C17.4795 44.4807 18.4196 45.864 18.4615 45.9179C18.4795 45.9478 18.5154 45.9658 18.5513 45.9658C18.5573 45.9658 18.5693 45.9658 18.5753 45.9658C18.6172 45.9538 18.6531 45.9239 18.6591 45.876C18.8388 44.822 20.1981 42.4387 21.8268 41.259C23.246 40.235 24.0125 39.0554 24.2341 38.6901C24.5754 39.1152 25.9347 41.1213 25.1203 45.5885C24.1443 50.9301 26.324 53.1577 26.6713 53.2894C26.6832 53.2894 26.6952 53.2954 26.7072 53.2954C26.7311 53.2954 26.7611 53.2834 26.7791 53.2715C26.809 53.2475 26.821 53.2056 26.815 53.1637C26.809 53.1218 25.9826 49.1635 27.7911 45.6604C29.4438 42.4687 29.2761 39.3009 29.2162 38.6422C29.8809 39.1212 31.5097 40.4985 32.0307 42.7381C32.7014 45.6245 34.3361 45.9538 34.408 45.9658C34.4139 45.9658 34.42 45.9658 34.4259 45.9658C34.4619 45.9658 34.4978 45.9478 34.5157 45.9179C34.5397 45.882 34.5397 45.8341 34.5157 45.7981C33.905 44.9179 33.2163 42.271 33.5636 40.2829C33.8631 38.5464 33.5876 37.1631 33.4918 36.7559C34.2643 36.8876 36.4439 37.5523 38.8272 40.9297C41.462 44.6723 44.0968 45.2652 45.0549 45.2652C45.2346 45.2652 45.3543 45.2472 45.4082 45.2233C45.4441 45.2053 45.4681 45.1694 45.4741 45.1334C45.4801 45.0975 45.4561 45.0556 45.4262 45.0316C45.3903 45.0077 41.989 42.828 40.7554 39.0733C39.7374 35.9714 37.7374 33.9953 36.929 33.2947C37.6835 33.1689 39.8452 32.9593 41.8093 34.145C42.9351 34.8277 43.8333 35.0193 44.492 35.0193C45.3124 35.0193 45.7495 34.7199 45.7795 34.6959C45.8154 34.672 45.8334 34.6241 45.8214 34.5821C45.8094 34.5402 45.7795 34.5043 45.7316 34.4983C44.6777 34.3187 42.2944 32.9653 41.1147 31.3305C40.1386 29.9772 39.0129 29.2107 38.5997 28.9592C39.1506 28.546 41.1626 27.3603 45.4202 28.1388C50.7616 29.1149 52.9892 26.9351 53.121 26.5878C53.1329 26.5519 53.127 26.51 53.103 26.48V26.474ZM24.1383 38.3847C24.1383 38.3847 24.1263 38.3847 24.1203 38.3787C21.0304 37.7379 18.3537 35.9235 16.5992 33.2827C16.5992 33.2767 16.5932 33.2707 16.5872 33.2647L16.5693 33.2468L16.4255 33.0132C16.4255 33.0072 16.4255 33.0012 16.4195 32.9953C15.683 31.8216 15.168 30.5461 14.8746 29.1927C14.8746 29.1927 14.8746 29.1927 14.8746 29.1867C14.8746 29.1867 14.8746 29.1867 14.8746 29.1807C14.7009 28.3603 14.6111 27.516 14.6111 26.6657C14.6111 25.9171 14.683 25.1686 14.8207 24.4321C14.8267 24.3901 14.8986 24.0548 14.8986 24.0548C14.8986 24.0548 14.8986 24.0428 14.8986 24.0368C15.204 22.6715 15.7429 21.384 16.4974 20.2043C16.4974 20.2043 16.4974 20.1984 16.5034 20.1924C16.5034 20.1924 16.5034 20.1864 16.5093 20.1804C17.3776 18.833 18.4854 17.6893 19.8088 16.7851C19.8388 16.7611 20.0723 16.6054 20.0723 16.6054C20.0783 16.6054 20.0843 16.6054 20.0903 16.5934C21.27 15.8269 22.5634 15.288 23.9347 14.9766C23.9766 14.9646 24.3479 14.8868 24.3479 14.8868C24.3538 14.8868 24.3599 14.8868 24.3658 14.8868C25.821 14.6173 27.3479 14.6173 28.7971 14.8868C30.3061 15.1682 31.7313 15.7371 33.0307 16.5695C33.0427 16.5755 33.0546 16.5815 33.0666 16.5815C33.0726 16.5934 33.0846 16.5994 33.0966 16.6114C35.7313 18.324 37.5578 20.9409 38.2524 23.9889C38.2644 24.0308 38.2883 24.1506 38.2943 24.1805C38.4619 24.983 38.5518 25.8153 38.5518 26.6537C38.5518 27.4202 38.4799 28.1867 38.3362 28.9352V28.9472C38.3362 28.9472 38.3362 28.9472 38.3362 28.9532C38.0428 30.4562 37.4739 31.8695 36.6356 33.1629C36.6356 33.1629 36.6356 33.1689 36.6356 33.1749C36.6356 33.1749 36.6356 33.1749 36.6296 33.1809C35.7613 34.5103 34.6595 35.6421 33.354 36.5343C33.3421 36.5463 33.3301 36.5583 33.3241 36.5702L33.2882 36.5822C33.2882 36.5822 33.2762 36.5882 33.2642 36.5942C32.0067 37.4385 30.6235 38.0314 29.1504 38.3487C29.1144 38.3547 28.833 38.4146 28.833 38.4146C28.827 38.4146 28.821 38.4146 28.815 38.4146C27.3659 38.6841 25.8389 38.6841 24.3838 38.4146C24.3778 38.4146 24.3718 38.4146 24.3658 38.4146H24.264L24.1682 38.3727L24.1383 38.3847Z" fill="#161616"/>
<g clip-path="url(#clip0_134_646)">
<path d="M134.796 5.71C130.656 1.9 124.836 0 117.336 0H95.0165L94.9365 22.24L96.9665 22.41C98.3165 22.52 99.9665 22.45 101.916 22.2C103.866 21.95 105.806 21.52 107.746 20.93C109.686 20.34 111.356 19.2 112.736 17.51C114.116 15.82 114.836 13.74 114.896 11.25C114.896 8.32 114.026 5.98 112.276 4.23C117.066 6.77 119.966 10.43 119.796 16.91V24.94H109.256C106.776 24.94 104.516 25.33 102.496 26.12C97.8765 27.81 94.7465 30.94 93.1165 35.5C91.5365 40.01 91.8765 44.21 94.1265 48.1C96.7165 52.67 101.116 54.95 107.316 54.95H141.026V22.41C141.026 15.08 138.956 9.52 134.816 5.71H134.796ZM119.956 51.66C119.956 51.66 112.096 52.91 111.686 40.59V40.54C111.666 40.21 111.666 39.89 111.666 39.57C111.666 26.17 119.946 27.4 119.946 27.4V51.66H119.956Z" fill="#161616"/>
<path d="M293.176 14.41C292.666 11.79 291.906 9.41 290.896 7.27C289.886 5.13 288.396 3.38 286.456 2.03C284.516 0.68 282.326 0 279.906 0H244.396V54.95H265.276V36.69H280.156C282.636 36.69 284.846 36.01 286.796 34.66C288.736 33.31 290.196 31.56 291.146 29.42C292.106 27.28 292.806 24.9 293.256 22.28C293.706 19.66 293.676 17.04 293.176 14.42V14.41ZM274.206 18.58C274.026 35.56 265.186 34.16 265.186 34.16V1.94C265.186 1.94 273.966 0.550001 274.206 17.36C274.206 17.59 274.206 17.82 274.206 18.06C274.206 18.24 274.206 18.41 274.206 18.59V18.58Z" fill="#161616"/>
<path d="M187.696 32.73V32.83L187.616 54.96H144.896V0H166.476V34.97C166.296 44.83 166.536 46.11 168.656 48.52C168.776 48.65 168.886 48.79 169.006 48.91C169.146 49.05 169.286 49.19 169.446 49.3L169.906 49.62C169.906 49.62 169.896 49.6 169.886 49.59C168.856 47.73 168.586 45.52 169.146 43.47C170.526 38.45 175.316 34.46 181.446 33.17C181.466 33.17 181.496 33.17 181.516 33.16C183.116 32.87 184.506 32.78 185.636 32.73H187.696Z" fill="#161616"/>
<path d="M329.166 0L329.246 27.95C326.766 27.22 323.536 27.22 321.256 28.79C319.526 29.98 318.396 31.53 317.506 33.43C317.506 30.27 317.486 20.09 317.466 14.73C317.436 8.17 317.426 3.26 317.426 0H297.246L297.326 54.96H317.506V38.72C317.506 37.31 317.916 36.13 318.726 35.17C319.536 34.22 320.526 33.64 321.676 33.44C322.826 33.24 323.966 33.26 325.096 33.48C326.216 33.7 327.186 34.31 328.006 35.29C328.816 36.28 329.226 37.47 329.226 38.88V54.95H349.406V0H329.146H329.166Z" fill="#161616"/>
<path d="M232.587 32.77H232.457C231.327 32.82 229.927 32.91 228.337 33.2C228.317 33.2 228.287 33.2 228.267 33.21C227.947 33.28 227.617 33.36 227.307 33.44C227.297 33.44 227.287 33.44 227.277 33.44C222.417 34.73 218.517 37.74 216.687 41.57C216.387 42.2 216.147 42.84 215.967 43.51C215.697 44.5 215.617 45.52 215.727 46.52C215.837 47.6 216.167 48.66 216.697 49.62C216.697 49.62 216.707 49.64 216.717 49.65L216.607 49.57C216.257 49.32 215.757 48.86 215.477 48.54C213.917 46.77 213.387 45.62 213.277 41.22C213.237 39.63 213.257 37.61 213.307 34.99V30.07H223.567C226.047 30.07 228.307 29.68 230.347 28.89C234.977 27.2 238.117 24.06 239.747 19.49C241.327 14.97 240.987 10.76 238.727 6.86001C236.127 2.28001 231.717 -0.00999451 225.507 -0.00999451H212.697C212.347 -0.00999451 211.987 -0.00999451 211.637 0.0200055C211.437 0.0200055 211.237 0.0400055 211.037 0.0500055C200.227 0.900006 191.727 9.94 191.727 20.96V32.61C191.727 39.95 193.807 45.53 197.957 49.35C201.587 52.68 206.507 54.56 212.707 54.98C212.887 54.99 213.057 55.01 213.237 55.01H237.607V32.76H234.537M213.297 3.27001C215.007 3.24001 220.757 3.90001 221.107 14.4V14.45C221.127 14.78 221.127 15.1 221.117 15.42C221.117 26.91 215.047 27.67 213.287 27.65V3.27001H213.297Z" fill="#161616"/>
</g>
<rect x="92.127" y="78.02" width="44" height="2" fill="#161616"/>
<path d="M255.887 71.312H258.747L263.697 84.512L268.669 71.312H271.529V87.02H269.549V73.952H269.505L264.599 87.02H262.817L257.911 73.952H257.867V87.02H255.887V71.312ZM284.775 86.976C284.452 87.1667 284.005 87.262 283.433 87.262C282.949 87.262 282.56 87.13 282.267 86.866C281.988 86.5873 281.849 86.14 281.849 85.524C281.336 86.14 280.734 86.5873 280.045 86.866C279.37 87.13 278.637 87.262 277.845 87.262C277.332 87.262 276.84 87.2033 276.371 87.086C275.916 86.9687 275.52 86.7853 275.183 86.536C274.846 86.2867 274.574 85.964 274.369 85.568C274.178 85.1573 274.083 84.666 274.083 84.094C274.083 83.4487 274.193 82.9207 274.413 82.51C274.633 82.0993 274.919 81.7693 275.271 81.52C275.638 81.256 276.048 81.058 276.503 80.926C276.972 80.794 277.449 80.684 277.933 80.596C278.446 80.4933 278.93 80.42 279.385 80.376C279.854 80.3173 280.265 80.244 280.617 80.156C280.969 80.0533 281.248 79.914 281.453 79.738C281.658 79.5473 281.761 79.276 281.761 78.924C281.761 78.5133 281.68 78.1833 281.519 77.934C281.372 77.6847 281.174 77.494 280.925 77.362C280.69 77.23 280.419 77.142 280.111 77.098C279.818 77.054 279.524 77.032 279.231 77.032C278.439 77.032 277.779 77.186 277.251 77.494C276.723 77.7873 276.437 78.352 276.393 79.188H274.523C274.552 78.484 274.699 77.89 274.963 77.406C275.227 76.922 275.579 76.5333 276.019 76.24C276.459 75.932 276.958 75.712 277.515 75.58C278.087 75.448 278.696 75.382 279.341 75.382C279.854 75.382 280.36 75.4187 280.859 75.492C281.372 75.5653 281.834 75.7193 282.245 75.954C282.656 76.174 282.986 76.4893 283.235 76.9C283.484 77.3107 283.609 77.846 283.609 78.506V84.358C283.609 84.798 283.631 85.1207 283.675 85.326C283.734 85.5313 283.91 85.634 284.203 85.634C284.364 85.634 284.555 85.5973 284.775 85.524V86.976ZM281.739 81.146C281.504 81.322 281.196 81.454 280.815 81.542C280.434 81.6153 280.03 81.6813 279.605 81.74C279.194 81.784 278.776 81.8427 278.351 81.916C277.926 81.9747 277.544 82.0773 277.207 82.224C276.87 82.3707 276.591 82.5833 276.371 82.862C276.166 83.126 276.063 83.4927 276.063 83.962C276.063 84.27 276.122 84.534 276.239 84.754C276.371 84.9593 276.532 85.128 276.723 85.26C276.928 85.392 277.163 85.4873 277.427 85.546C277.691 85.6047 277.97 85.634 278.263 85.634C278.879 85.634 279.407 85.5533 279.847 85.392C280.287 85.216 280.646 85.0033 280.925 84.754C281.204 84.49 281.409 84.2113 281.541 83.918C281.673 83.61 281.739 83.324 281.739 83.06V81.146ZM286.449 75.646H288.209V78.044H288.253C288.708 77.12 289.265 76.438 289.925 75.998C290.585 75.558 291.421 75.3527 292.433 75.382V77.362C291.685 77.362 291.047 77.4647 290.519 77.67C289.991 77.8753 289.566 78.176 289.243 78.572C288.921 78.968 288.686 79.452 288.539 80.024C288.393 80.5813 288.319 81.2267 288.319 81.96V87.02H286.449V75.646ZM301.177 79.298C301.03 78.5793 300.722 78.022 300.253 77.626C299.784 77.23 299.153 77.032 298.361 77.032C297.686 77.032 297.122 77.1567 296.667 77.406C296.212 77.6553 295.846 77.9853 295.567 78.396C295.303 78.8067 295.112 79.2833 294.995 79.826C294.878 80.354 294.819 80.904 294.819 81.476C294.819 82.004 294.878 82.5173 294.995 83.016C295.127 83.5147 295.325 83.962 295.589 84.358C295.853 84.7393 296.198 85.0473 296.623 85.282C297.048 85.5167 297.554 85.634 298.141 85.634C299.065 85.634 299.784 85.392 300.297 84.908C300.825 84.424 301.148 83.742 301.265 82.862H303.179C302.974 84.27 302.446 85.3553 301.595 86.118C300.759 86.8807 299.615 87.262 298.163 87.262C297.298 87.262 296.528 87.1227 295.853 86.844C295.193 86.5653 294.636 86.1693 294.181 85.656C293.741 85.1427 293.404 84.534 293.169 83.83C292.949 83.1113 292.839 82.3267 292.839 81.476C292.839 80.6253 292.949 79.8333 293.169 79.1C293.389 78.352 293.719 77.7067 294.159 77.164C294.614 76.6067 295.178 76.174 295.853 75.866C296.528 75.5433 297.312 75.382 298.207 75.382C298.852 75.382 299.454 75.4627 300.011 75.624C300.583 75.7707 301.082 76.0053 301.507 76.328C301.947 76.6507 302.306 77.0613 302.585 77.56C302.864 78.044 303.04 78.6233 303.113 79.298H301.177ZM305.271 71.312H307.141V77.318H307.185C307.332 76.966 307.537 76.6727 307.801 76.438C308.065 76.1887 308.359 75.9907 308.681 75.844C309.019 75.6827 309.363 75.5653 309.715 75.492C310.082 75.4187 310.434 75.382 310.771 75.382C311.519 75.382 312.143 75.4847 312.641 75.69C313.14 75.8953 313.543 76.1813 313.851 76.548C314.159 76.9147 314.372 77.3547 314.489 77.868C314.621 78.3667 314.687 78.924 314.687 79.54V87.02H312.817V79.32C312.817 78.616 312.612 78.0587 312.201 77.648C311.791 77.2373 311.226 77.032 310.507 77.032C309.935 77.032 309.437 77.12 309.011 77.296C308.601 77.472 308.256 77.7213 307.977 78.044C307.699 78.3667 307.486 78.748 307.339 79.188C307.207 79.6133 307.141 80.0827 307.141 80.596V87.02H305.271V71.312ZM317.914 71.312H320.356V73.754C320.356 74.194 320.305 74.612 320.202 75.008C320.114 75.3893 319.967 75.7267 319.762 76.02C319.571 76.3133 319.322 76.548 319.014 76.724C318.721 76.9 318.361 76.988 317.936 76.988V75.888C318.185 75.888 318.391 75.8293 318.552 75.712C318.713 75.58 318.845 75.4113 318.948 75.206C319.051 75.0007 319.117 74.7733 319.146 74.524C319.19 74.26 319.212 74.0033 319.212 73.754H317.914V71.312ZM323.179 76.944C323.135 76.152 323.216 75.4187 323.421 74.744C323.626 74.0693 323.942 73.49 324.367 73.006C324.807 72.5073 325.35 72.1187 325.995 71.84C326.64 71.5613 327.374 71.422 328.195 71.422C328.87 71.422 329.5 71.5247 330.087 71.73C330.688 71.9207 331.209 72.2067 331.649 72.588C332.089 72.9547 332.434 73.4167 332.683 73.974C332.947 74.5313 333.079 75.1767 333.079 75.91C333.079 76.5993 332.969 77.208 332.749 77.736C332.544 78.264 332.265 78.7407 331.913 79.166C331.561 79.5767 331.158 79.9507 330.703 80.288C330.248 80.6253 329.779 80.948 329.295 81.256C328.811 81.5493 328.327 81.8427 327.843 82.136C327.359 82.4147 326.912 82.7153 326.501 83.038C326.105 83.3607 325.76 83.7127 325.467 84.094C325.188 84.4607 325.005 84.886 324.917 85.37H332.925V87.02H322.739C322.812 86.096 322.974 85.3113 323.223 84.666C323.487 84.006 323.817 83.434 324.213 82.95C324.609 82.466 325.056 82.0407 325.555 81.674C326.054 81.3073 326.574 80.9627 327.117 80.64C327.777 80.2293 328.356 79.8553 328.855 79.518C329.354 79.166 329.764 78.814 330.087 78.462C330.424 78.11 330.674 77.7287 330.835 77.318C331.011 76.9073 331.099 76.4307 331.099 75.888C331.099 75.4627 331.018 75.0813 330.857 74.744C330.696 74.392 330.476 74.0913 330.197 73.842C329.933 73.5927 329.618 73.402 329.251 73.27C328.884 73.138 328.496 73.072 328.085 73.072C327.542 73.072 327.073 73.1893 326.677 73.424C326.296 73.644 325.98 73.9373 325.731 74.304C325.482 74.6707 325.298 75.0887 325.181 75.558C325.078 76.0127 325.034 76.4747 325.049 76.944H323.179ZM344.776 73.336H338.484L337.648 77.824L337.692 77.868C338.029 77.4867 338.462 77.208 338.99 77.032C339.532 76.8413 340.068 76.746 340.596 76.746C341.285 76.746 341.938 76.856 342.554 77.076C343.17 77.296 343.705 77.6333 344.16 78.088C344.614 78.528 344.974 79.0853 345.238 79.76C345.502 80.42 345.634 81.1973 345.634 82.092C345.634 82.752 345.516 83.3973 345.282 84.028C345.062 84.644 344.724 85.194 344.27 85.678C343.815 86.162 343.243 86.5507 342.554 86.844C341.879 87.1227 341.087 87.262 340.178 87.262C339.503 87.262 338.865 87.1667 338.264 86.976C337.677 86.7707 337.156 86.4847 336.702 86.118C336.247 85.7367 335.888 85.2673 335.624 84.71C335.36 84.1527 335.22 83.522 335.206 82.818H337.076C337.105 83.214 337.2 83.588 337.362 83.94C337.538 84.2773 337.765 84.578 338.044 84.842C338.337 85.0913 338.674 85.2893 339.056 85.436C339.452 85.568 339.884 85.634 340.354 85.634C340.794 85.634 341.212 85.5607 341.608 85.414C342.018 85.2527 342.37 85.018 342.664 84.71C342.972 84.402 343.214 84.0207 343.39 83.566C343.566 83.0967 343.654 82.554 343.654 81.938C343.654 81.4247 343.566 80.9553 343.39 80.53C343.228 80.09 342.994 79.716 342.686 79.408C342.378 79.0853 342.004 78.836 341.564 78.66C341.138 78.484 340.662 78.396 340.134 78.396C339.518 78.396 338.968 78.5353 338.484 78.814C338.014 79.078 337.596 79.43 337.23 79.87L335.624 79.782L337.076 71.686H344.776V73.336ZM348.486 84.578H350.928V87.02H348.486V84.578Z" fill="#161616"/>
<defs>
<clipPath id="clip0_134_646">
<rect width="257.3" height="55.02" fill="white" transform="translate(92.127)"/>
</clipPath>
</defs>
</svg>
