<svg width="366" height="96" viewBox="0 0 366 96" fill="none" xmlns="http://www.w3.org/2000/svg">
<path d="M55.0389 27.4391C55.014 27.4081 54.9706 27.3957 54.9271 27.4019C54.8837 27.4081 50.7812 28.2646 47.1504 26.3902C43.7121 24.6152 40.373 24.8634 39.8206 24.9193C39.8206 24.9193 39.833 24.9069 39.8393 24.9007C40.2303 24.3421 41.7012 22.4677 44.1465 21.8967C47.138 21.2016 47.4794 19.5072 47.4918 19.4327C47.498 19.3893 47.4794 19.3396 47.4422 19.3148C47.4049 19.2899 47.3553 19.2899 47.318 19.3148C46.4057 19.9478 43.6562 20.6616 41.6019 20.3016C39.9385 20.0099 38.5607 20.2458 38.0456 20.3513C38.1945 19.5134 38.9083 17.2852 42.3839 14.8523C46.9953 11.6249 47.0077 8.39125 46.8525 8.04368C46.8339 8.00644 46.7967 7.98162 46.7594 7.97541C46.716 7.97541 46.6788 7.99403 46.6539 8.02506C46.6291 8.0623 44.3575 11.5814 40.4661 12.8476C37.0463 13.9585 34.8989 16.286 34.3714 16.9066C34.241 16.2053 33.9493 13.8778 35.234 11.7552C36.8229 9.12983 35.8485 7.69612 35.8051 7.64026C35.7802 7.60302 35.7306 7.5844 35.6871 7.59681C35.6437 7.60922 35.6064 7.64026 35.6002 7.68991C35.414 8.78227 34.0114 11.2463 32.317 12.4752C30.8771 13.5179 30.0827 14.7095 29.8344 15.1129C29.4496 14.6288 28.1028 12.5372 28.9345 7.98783C29.9462 2.45779 27.687 0.142751 27.327 0.00620674C27.2898 -0.00620635 27.2463 -5.61845e-07 27.2153 0.0248256C27.1843 0.0496518 27.1719 0.0930978 27.1781 0.136544C27.1843 0.179989 28.0408 4.28252 26.1664 7.91335C24.4348 11.2587 24.6334 14.5792 24.6893 15.2122C24.081 14.7778 22.2936 13.3192 21.7412 10.9421C21.0461 7.95058 19.3455 7.60922 19.2773 7.59681C19.2338 7.5906 19.1842 7.60923 19.1593 7.64646C19.1345 7.6837 19.1345 7.73335 19.1593 7.77059C19.7924 8.68296 20.5061 11.4263 20.1462 13.4868C19.8358 15.2805 20.1213 16.7142 20.2206 17.1425C19.3331 16.9873 17.1422 16.2549 14.7217 12.8165C11.4819 8.21126 8.24839 8.21126 7.90083 8.37263C7.86359 8.39125 7.83878 8.42849 7.83878 8.46573C7.83878 8.50918 7.85737 8.54642 7.88841 8.57124C7.92564 8.59607 11.4509 10.8553 12.7294 14.7468C13.7907 17.9804 15.9382 20.072 16.6892 20.7299C15.8885 20.8664 13.6604 21.0961 11.6061 19.8547C8.98073 18.2659 7.54704 19.2403 7.49118 19.2837C7.45394 19.3086 7.43536 19.3582 7.44777 19.4017C7.46018 19.4451 7.49119 19.4824 7.54085 19.4886C8.63318 19.6748 11.0972 21.0774 12.326 22.7718C13.4308 24.3048 14.7155 25.1055 15.032 25.2917C12.9032 26.924 8.80078 26.2723 7.98773 26.1234C2.44537 25.1055 0.136537 27.3709 0.00620174 27.7309C-0.00621116 27.7681 1.34725e-05 27.8115 0.0248393 27.8426C0.0496651 27.8736 0.0931057 27.886 0.136551 27.8798C0.179996 27.8736 4.28248 27.0171 7.91326 28.8977C10.4269 30.1949 12.8784 30.4121 14.2438 30.4121C14.6038 30.4121 14.8831 30.3997 15.0755 30.3811C14.6472 30.9831 13.1887 32.7892 10.7992 33.3416C7.80772 34.0367 7.46636 35.7373 7.45395 35.8056C7.44774 35.849 7.46637 35.8987 7.50361 35.9235C7.54085 35.9483 7.59051 35.9483 7.62774 35.9235C8.54009 35.2904 11.2834 34.5767 13.3439 34.9367C15.0445 35.2346 16.4471 34.9863 16.9312 34.8746C16.7885 35.7125 16.0747 37.9406 12.5867 40.3798C7.9753 43.6072 7.95667 46.8408 8.11804 47.1884C8.13666 47.2256 8.17391 47.2504 8.21115 47.2567C8.24839 47.2567 8.29183 47.238 8.31665 47.207C8.34148 47.1698 10.6131 43.6506 14.5045 42.3845C17.856 41.2984 19.9724 39.0516 20.5744 38.3565C20.7109 39.1074 20.9716 41.3915 19.7055 43.4769C18.1167 46.1022 19.0911 47.5359 19.1345 47.5918C19.1531 47.6228 19.1904 47.6415 19.2276 47.6415C19.2338 47.6415 19.2462 47.6415 19.2524 47.6415C19.2959 47.629 19.3331 47.598 19.3393 47.5484C19.5255 46.456 20.9344 43.9858 22.6225 42.7631C24.0934 41.7018 24.8879 40.4791 25.1175 40.1005C25.4713 40.5412 26.8801 42.6204 26.0361 47.2504C25.0244 52.7867 27.2836 55.0955 27.6436 55.2321C27.656 55.2321 27.6684 55.2383 27.6808 55.2383C27.7056 55.2383 27.7366 55.2259 27.7553 55.2134C27.7863 55.1886 27.7987 55.1452 27.7925 55.1017C27.7863 55.0583 26.9298 50.9558 28.8042 47.3249C30.5171 44.0168 30.3434 40.7336 30.2813 40.0509C30.9702 40.5474 32.6584 41.9749 33.1983 44.2961C33.8935 47.2877 35.5878 47.629 35.6623 47.6415C35.6685 47.6415 35.6747 47.6415 35.6809 47.6415C35.7182 47.6415 35.7554 47.6228 35.774 47.5918C35.7988 47.5546 35.7988 47.5049 35.774 47.4677C35.1409 46.5553 34.4272 43.812 34.7872 41.7514C35.0975 39.9515 34.812 38.5178 34.7127 38.0958C35.5133 38.2323 37.7725 38.9213 40.2427 42.4217C42.9735 46.3008 45.7043 46.9153 46.6974 46.9153C46.8836 46.9153 47.0077 46.8967 47.0635 46.8718C47.1008 46.8532 47.1256 46.816 47.1318 46.7787C47.138 46.7415 47.1132 46.6981 47.0822 46.6732C47.0449 46.6484 43.5197 44.3892 42.2411 40.4977C41.1861 37.2827 39.1131 35.2346 38.2752 34.5084C39.0572 34.3781 41.2977 34.1608 43.3335 35.3897C44.5003 36.0973 45.4313 36.2959 46.114 36.2959C46.9643 36.2959 47.4173 35.9856 47.4483 35.9607C47.4856 35.9359 47.5042 35.8863 47.4918 35.8428C47.4794 35.7994 47.4484 35.7621 47.3987 35.7559C46.3064 35.5697 43.8362 34.167 42.6135 32.4727C41.6019 31.07 40.435 30.2755 40.0068 30.0149C40.5778 29.5866 42.6632 28.3577 47.076 29.1646C52.6121 30.1762 54.9209 27.917 55.0575 27.5571C55.0699 27.5198 55.0637 27.4764 55.0389 27.4454V27.4391ZM25.0182 39.784C25.0182 39.784 25.0058 39.784 24.9996 39.7778C21.7971 39.1137 19.0228 37.2331 17.2043 34.496C17.2043 34.4898 17.1981 34.4836 17.1919 34.4774L17.1733 34.4587L17.0243 34.2167C17.0243 34.2105 17.0243 34.2043 17.0181 34.1981C16.2547 32.9816 15.721 31.6596 15.4168 30.2569C15.4168 30.2569 15.4168 30.2569 15.4168 30.2507C15.4168 30.2507 15.4168 30.2507 15.4168 30.2445C15.2368 29.3942 15.1438 28.5191 15.1438 27.6378C15.1438 26.8619 15.2183 26.0861 15.361 25.3227C15.3672 25.2793 15.4417 24.9317 15.4417 24.9317C15.4417 24.9317 15.4417 24.9193 15.4417 24.9131C15.7582 23.498 16.3168 22.1636 17.0988 20.9409C17.0988 20.9409 17.0988 20.9347 17.105 20.9285C17.105 20.9285 17.105 20.9223 17.1112 20.9161C18.0111 19.5196 19.1593 18.3341 20.5309 17.397C20.562 17.3721 20.804 17.2108 20.804 17.2108C20.8102 17.2108 20.8165 17.2108 20.8227 17.1983C22.0453 16.4039 23.3859 15.8453 24.8072 15.5226C24.8506 15.5102 25.2354 15.4295 25.2354 15.4295C25.2417 15.4295 25.2479 15.4295 25.2541 15.4295C26.7623 15.1502 28.3449 15.1502 29.8468 15.4295C31.4109 15.7212 32.888 16.3108 34.2348 17.1735C34.2472 17.1797 34.2596 17.1859 34.272 17.1859C34.2783 17.1983 34.2907 17.2045 34.3031 17.217C37.0339 18.992 38.9269 21.7043 39.6469 24.8634C39.6593 24.9069 39.6841 25.031 39.6903 25.062C39.864 25.8937 39.9572 26.7564 39.9572 27.6253C39.9572 28.4198 39.8827 29.2142 39.7337 29.99V30.0025C39.7337 30.0025 39.7337 30.0024 39.7337 30.0087C39.4296 31.5665 38.84 33.0312 37.9711 34.3719C37.9711 34.3719 37.9711 34.3781 37.9711 34.3843C37.9711 34.3843 37.9711 34.3843 37.9649 34.3905C37.065 35.7683 35.9229 36.9414 34.5699 37.8661C34.5575 37.8786 34.5451 37.891 34.5389 37.9034L34.5017 37.9158C34.5017 37.9158 34.4893 37.922 34.4769 37.9282C33.1735 38.8033 31.7398 39.4178 30.213 39.7467C30.1758 39.7529 29.8841 39.815 29.8841 39.815C29.8779 39.815 29.8717 39.815 29.8655 39.815C28.3635 40.0943 26.7809 40.0943 25.2727 39.815C25.2665 39.815 25.2603 39.815 25.2541 39.815H25.1486L25.0493 39.7716L25.0182 39.784Z" fill="#FFF9F3"/>
<g clip-path="url(#clip0_142_953)">
<path d="M139.711 5.91815C135.42 1.96926 129.388 0 121.614 0H98.4807L98.3978 23.0507L100.502 23.2269C101.901 23.341 103.611 23.2684 105.632 23.0093C107.653 22.7502 109.664 22.3045 111.675 21.693C113.685 21.0815 115.416 19.8999 116.847 18.1483C118.277 16.3967 119.023 14.2409 119.085 11.6601C119.085 8.6233 118.184 6.198 116.37 4.3842C121.335 7.0168 124.34 10.8102 124.164 17.5264V25.8492H113.24C110.669 25.8492 108.327 26.2534 106.233 27.0722C101.445 28.8238 98.2008 32.0679 96.5114 36.7941C94.8738 41.4685 95.2262 45.8216 97.5582 49.8535C100.243 54.5901 104.803 56.9532 111.229 56.9532H146.168V23.2269C146.168 15.6297 144.022 9.86705 139.732 5.91815H139.711ZM124.33 53.5432C124.33 53.5432 116.183 54.8388 115.758 42.0697V42.0179C115.738 41.6758 115.738 41.3442 115.738 41.0125C115.738 27.124 124.319 28.3989 124.319 28.3989V53.5432H124.33Z" fill="#FFF9F3"/>
<path d="M303.865 14.9353C303.336 12.2198 302.549 9.75304 301.502 7.53502C300.455 5.31701 298.911 3.50322 296.9 2.104C294.889 0.704789 292.619 0 290.111 0H253.307V56.9532H274.948V38.0275H290.37C292.941 38.0275 295.231 37.3227 297.252 35.9235C299.263 34.5243 300.776 32.7105 301.761 30.4925C302.756 28.2745 303.481 25.8077 303.948 23.0922C304.414 20.3767 304.383 17.6612 303.865 14.9457V14.9353ZM284.203 19.2573C284.017 36.8563 274.855 35.4053 274.855 35.4053V2.01072C274.855 2.01072 283.955 0.570051 284.203 17.9928C284.203 18.2312 284.203 18.4696 284.203 18.7184C284.203 18.9049 284.203 19.0811 284.203 19.2677V19.2573Z" fill="#FFF9F3"/>
<path d="M194.538 33.9232V34.0268L194.455 56.9635H150.178V0H172.544V36.2448C172.358 46.4643 172.607 47.7909 174.804 50.2888C174.928 50.4235 175.042 50.5686 175.167 50.693C175.312 50.8381 175.457 50.9832 175.623 51.0972L176.099 51.4289C176.099 51.4289 176.089 51.4081 176.079 51.3978C175.011 49.47 174.731 47.1794 175.312 45.0547C176.742 39.8517 181.707 35.7162 188.06 34.3792C188.081 34.3792 188.112 34.3792 188.133 34.3688C189.791 34.0683 191.232 33.975 192.403 33.9232H194.538Z" fill="#FFF9F3"/>
<path d="M341.166 0L341.249 28.9689C338.678 28.2123 335.33 28.2123 332.967 29.8395C331.174 31.0729 330.003 32.6794 329.081 34.6487C329.081 31.3735 329.06 20.8224 329.039 15.267C329.008 8.46783 328.998 3.37884 328.998 0H308.082L308.165 56.9635H329.081V40.1315C329.081 38.6701 329.506 37.4471 330.345 36.4521C331.185 35.4675 332.211 34.8663 333.403 34.659C334.595 34.4517 335.776 34.4725 336.947 34.7005C338.108 34.9285 339.113 35.5608 339.963 36.5765C340.803 37.6026 341.228 38.8359 341.228 40.2973V56.9532H362.143V0H341.145H341.166Z" fill="#FFF9F3"/>
<path d="M241.066 33.9646H240.932C239.76 34.0165 238.309 34.1097 236.661 34.4103C236.641 34.4103 236.61 34.4103 236.589 34.4207C236.257 34.4932 235.915 34.5761 235.594 34.6591C235.583 34.6591 235.573 34.6591 235.563 34.6591C230.526 35.9961 226.483 39.1158 224.587 43.0854C224.276 43.7384 224.027 44.4017 223.84 45.0961C223.561 46.1222 223.478 47.1794 223.592 48.2159C223.706 49.3353 224.048 50.4339 224.597 51.4289C224.597 51.4289 224.607 51.4496 224.618 51.46L224.504 51.3771C224.141 51.118 223.623 50.6412 223.333 50.3095C221.716 48.475 221.166 47.2831 221.052 42.7227C221.011 41.0747 221.032 38.9811 221.083 36.2656V31.1662H231.718C234.288 31.1662 236.63 30.762 238.745 29.9432C243.543 28.1916 246.798 24.9371 248.487 20.2005C250.125 15.5157 249.773 11.1523 247.43 7.1101C244.735 2.36314 240.165 -0.0103455 233.728 -0.0103455H220.451C220.088 -0.0103455 219.715 -0.0103455 219.353 0.0207482C219.145 0.0207482 218.938 0.0414773 218.731 0.0518418C207.527 0.932828 198.717 10.3024 198.717 21.7241V33.7988C198.717 41.4064 200.873 47.1898 205.174 51.149C208.936 54.6004 214.036 56.549 220.462 56.9843C220.648 56.9946 220.824 57.0154 221.011 57.0154H246.269V33.9543H243.087M221.073 3.38923C222.845 3.35813 228.805 4.04219 229.168 14.925V14.9768C229.189 15.3188 229.189 15.6505 229.178 15.9821C229.178 27.891 222.887 28.6787 221.063 28.658V3.38923H221.073Z" fill="#FFF9F3"/>
</g>
<rect x="95.0957" y="80.8903" width="45.604" height="2.07291" fill="#FFF9F3"/>
<path d="M264.824 74.1461H267.788L272.919 87.8273L278.072 74.1461H281.036V90.4267H278.984V76.8823H278.939L273.854 90.4267H272.007L266.922 76.8823H266.876V90.4267H264.824V74.1461ZM294.765 90.3811C294.431 90.5787 293.967 90.6775 293.374 90.6775C292.873 90.6775 292.47 90.5407 292.166 90.2671C291.877 89.9783 291.733 89.5146 291.733 88.8762C291.201 89.5146 290.577 89.9783 289.863 90.2671C289.164 90.5407 288.404 90.6775 287.583 90.6775C287.051 90.6775 286.541 90.6167 286.055 90.4951C285.584 90.3735 285.173 90.1835 284.824 89.9251C284.474 89.6667 284.193 89.3322 283.98 88.9218C283.782 88.4962 283.684 87.9869 283.684 87.3941C283.684 86.7252 283.798 86.178 284.026 85.7523C284.254 85.3267 284.55 84.9847 284.915 84.7262C285.295 84.4526 285.721 84.2474 286.192 84.1106C286.678 83.9738 287.172 83.8598 287.674 83.7685C288.206 83.6621 288.708 83.5861 289.179 83.5405C289.665 83.4797 290.091 83.4037 290.456 83.3125C290.821 83.2061 291.109 83.0617 291.322 82.8793C291.535 82.6816 291.641 82.4004 291.641 82.0356C291.641 81.61 291.558 81.2679 291.391 81.0095C291.239 80.7511 291.033 80.5535 290.775 80.4166C290.532 80.2798 290.251 80.1886 289.931 80.143C289.627 80.0974 289.323 80.0746 289.019 80.0746C288.198 80.0746 287.514 80.2342 286.967 80.5535C286.42 80.8575 286.123 81.4427 286.078 82.3092H284.14C284.17 81.5796 284.322 80.9639 284.596 80.4623C284.869 79.9606 285.234 79.5578 285.69 79.2537C286.146 78.9345 286.663 78.7065 287.241 78.5697C287.834 78.4329 288.464 78.3645 289.133 78.3645C289.665 78.3645 290.19 78.4025 290.707 78.4785C291.239 78.5545 291.717 78.7141 292.143 78.9573C292.569 79.1853 292.911 79.5122 293.169 79.9378C293.428 80.3634 293.557 80.9183 293.557 81.6024V87.6677C293.557 88.1237 293.58 88.4582 293.625 88.671C293.686 88.8838 293.868 88.9902 294.172 88.9902C294.34 88.9902 294.537 88.9522 294.765 88.8762V90.3811ZM291.619 84.3386C291.375 84.521 291.056 84.6578 290.661 84.749C290.266 84.825 289.848 84.8934 289.407 84.9542C288.981 84.9999 288.548 85.0607 288.107 85.1367C287.666 85.1975 287.271 85.3039 286.921 85.4559C286.572 85.6079 286.283 85.8283 286.055 86.1171C285.842 86.3908 285.736 86.7708 285.736 87.2572C285.736 87.5765 285.797 87.8501 285.918 88.0781C286.055 88.2909 286.222 88.4658 286.42 88.6026C286.633 88.7394 286.876 88.8382 287.149 88.899C287.423 88.9598 287.712 88.9902 288.016 88.9902C288.654 88.9902 289.202 88.9066 289.658 88.7394C290.114 88.557 290.486 88.3365 290.775 88.0781C291.064 87.8045 291.277 87.5157 291.413 87.2116C291.55 86.8924 291.619 86.596 291.619 86.3224V84.3386ZM296.501 78.6381H298.325V81.1235H298.371C298.842 80.1658 299.419 79.459 300.103 79.0029C300.788 78.5469 301.654 78.3341 302.703 78.3645V80.4166C301.928 80.4166 301.266 80.5231 300.719 80.7359C300.172 80.9487 299.731 81.2603 299.397 81.6708C299.062 82.0812 298.819 82.5828 298.667 83.1757C298.515 83.7533 298.439 84.4222 298.439 85.1823V90.4267H296.501V78.6381ZM311.765 82.4232C311.613 81.6784 311.294 81.1007 310.807 80.6903C310.321 80.2798 309.667 80.0746 308.846 80.0746C308.147 80.0746 307.562 80.2038 307.091 80.4623C306.619 80.7207 306.239 81.0627 305.951 81.4883C305.677 81.914 305.479 82.408 305.358 82.9705C305.236 83.5177 305.175 84.0878 305.175 84.6806C305.175 85.2279 305.236 85.7599 305.358 86.2768C305.495 86.7936 305.7 87.2572 305.973 87.6677C306.247 88.0629 306.604 88.3821 307.045 88.6254C307.486 88.8686 308.01 88.9902 308.618 88.9902C309.576 88.9902 310.321 88.7394 310.853 88.2377C311.4 87.7361 311.735 87.0292 311.856 86.1171H313.84C313.627 87.5765 313.08 88.7014 312.198 89.4918C311.332 90.2823 310.146 90.6775 308.641 90.6775C307.744 90.6775 306.946 90.5331 306.247 90.2443C305.563 89.9555 304.985 89.5451 304.514 89.013C304.058 88.481 303.708 87.8501 303.465 87.1204C303.237 86.3756 303.123 85.5623 303.123 84.6806C303.123 83.7989 303.237 82.9781 303.465 82.218C303.693 81.4427 304.035 80.7739 304.491 80.2114C304.963 79.6338 305.548 79.1853 306.247 78.8661C306.946 78.5317 307.76 78.3645 308.687 78.3645C309.356 78.3645 309.979 78.4481 310.557 78.6153C311.149 78.7673 311.666 79.0105 312.107 79.345C312.563 79.6794 312.936 80.105 313.224 80.6219C313.513 81.1235 313.696 81.724 313.772 82.4232H311.765ZM316.009 74.1461H317.947V80.371H317.993C318.145 80.0062 318.357 79.7022 318.631 79.459C318.905 79.2005 319.209 78.9953 319.543 78.8433C319.893 78.6761 320.25 78.5545 320.615 78.4785C320.995 78.4025 321.36 78.3645 321.709 78.3645C322.485 78.3645 323.131 78.4709 323.647 78.6837C324.164 78.8965 324.582 79.1929 324.902 79.573C325.221 79.953 325.441 80.409 325.563 80.9411C325.7 81.4579 325.768 82.0356 325.768 82.674V90.4267H323.83V82.446C323.83 81.7164 323.617 81.1387 323.191 80.7131C322.766 80.2874 322.181 80.0746 321.436 80.0746C320.843 80.0746 320.326 80.1658 319.885 80.3482C319.459 80.5307 319.102 80.7891 318.813 81.1235C318.525 81.4579 318.304 81.8532 318.152 82.3092C318.015 82.7501 317.947 83.2365 317.947 83.7685V90.4267H316.009V74.1461ZM329.112 74.1461H331.643V76.6771C331.643 77.1332 331.59 77.5664 331.484 77.9768C331.392 78.3721 331.24 78.7217 331.028 79.0257C330.83 79.3298 330.572 79.573 330.252 79.7554C329.948 79.9378 329.576 80.029 329.135 80.029V78.8889C329.393 78.8889 329.606 78.8281 329.774 78.7065C329.941 78.5697 330.078 78.3949 330.184 78.1821C330.29 77.9692 330.359 77.7336 330.389 77.4752C330.435 77.2016 330.458 76.9355 330.458 76.6771H329.112V74.1461ZM334.569 79.9834C334.524 79.1625 334.607 78.4025 334.82 77.7032C335.033 77.004 335.36 76.4035 335.801 75.9019C336.257 75.385 336.819 74.9822 337.488 74.6933C338.157 74.4045 338.917 74.2601 339.768 74.2601C340.467 74.2601 341.121 74.3665 341.729 74.5793C342.352 74.777 342.892 75.0734 343.348 75.4686C343.804 75.8486 344.161 76.3275 344.42 76.9051C344.693 77.4828 344.83 78.1517 344.83 78.9117C344.83 79.6262 344.716 80.257 344.488 80.8043C344.275 81.3515 343.986 81.8456 343.622 82.2864C343.257 82.7121 342.839 83.0997 342.368 83.4493C341.896 83.7989 341.41 84.1334 340.908 84.4526C340.407 84.7566 339.905 85.0607 339.403 85.3647C338.902 85.6535 338.438 85.9651 338.012 86.2996C337.602 86.634 337.245 86.9988 336.941 87.3941C336.652 87.7741 336.462 88.2149 336.371 88.7166H344.671V90.4267H334.113C334.189 89.469 334.356 88.6558 334.615 87.9869C334.888 87.3029 335.23 86.71 335.641 86.2084C336.051 85.7067 336.515 85.2659 337.032 84.8858C337.549 84.5058 338.088 84.1486 338.651 83.8141C339.335 83.3885 339.935 83.0009 340.452 82.6512C340.969 82.2864 341.395 81.9216 341.729 81.5567C342.079 81.1919 342.337 80.7967 342.504 80.371C342.687 79.9454 342.778 79.4514 342.778 78.8889C342.778 78.4481 342.694 78.0528 342.527 77.7032C342.36 77.3384 342.132 77.0268 341.843 76.7683C341.569 76.5099 341.243 76.3123 340.863 76.1755C340.483 76.0387 340.08 75.9703 339.654 75.9703C339.092 75.9703 338.605 76.0919 338.195 76.3351C337.8 76.5631 337.473 76.8671 337.214 77.2472C336.956 77.6272 336.766 78.0604 336.644 78.5469C336.538 79.0181 336.492 79.497 336.507 79.9834H334.569ZM356.953 76.2439H350.432L349.565 80.8955L349.611 80.9411C349.961 80.5459 350.409 80.257 350.956 80.0746C351.519 79.877 352.074 79.7782 352.621 79.7782C353.335 79.7782 354.012 79.8922 354.65 80.1202C355.289 80.3482 355.843 80.6979 356.315 81.1691C356.786 81.6252 357.158 82.2028 357.432 82.9021C357.706 83.5861 357.842 84.3918 357.842 85.3191C357.842 86.0031 357.721 86.672 357.478 87.3257C357.25 87.9641 356.9 88.5342 356.429 89.0358C355.957 89.5374 355.365 89.9403 354.65 90.2443C353.951 90.5331 353.13 90.6775 352.188 90.6775C351.488 90.6775 350.827 90.5787 350.204 90.3811C349.596 90.1683 349.056 89.8719 348.585 89.4918C348.114 89.0966 347.741 88.6102 347.468 88.0325C347.194 87.4549 347.049 86.8012 347.034 86.0715H348.972C349.003 86.482 349.102 86.8696 349.269 87.2344C349.451 87.5841 349.687 87.8957 349.976 88.1693C350.28 88.4278 350.629 88.633 351.025 88.785C351.435 88.9218 351.883 88.9902 352.37 88.9902C352.826 88.9902 353.259 88.9142 353.67 88.7622C354.095 88.595 354.46 88.3517 354.764 88.0325C355.083 87.7133 355.334 87.3181 355.517 86.8468C355.699 86.3604 355.79 85.7979 355.79 85.1595C355.79 84.6274 355.699 84.141 355.517 83.7001C355.349 83.2441 355.106 82.8565 354.787 82.5372C354.468 82.2028 354.08 81.9444 353.624 81.762C353.183 81.5796 352.689 81.4883 352.142 81.4883C351.503 81.4883 350.933 81.6328 350.432 81.9216C349.945 82.1952 349.512 82.56 349.132 83.0161L347.468 82.9249L348.972 74.5337H356.953V76.2439ZM360.799 87.8957H363.33V90.4267H360.799V87.8957Z" fill="#FFF9F3"/>
<defs>
<clipPath id="clip0_142_953">
<rect width="266.68" height="57.0257" fill="white" transform="translate(95.4863)"/>
</clipPath>
</defs>
</svg>
